<svg 
          width="18.92967987060547" 
          height="52.98917770385742" fill="none" 
          xmlns="http://www.w3.org/2000/svg">
          <path d="M 6.213411253930201 0.8751873174739833 C 5.8307203593006705 0.5571065764764322 5.38913161868437 0.3175172846565317 4.913847131078429 0.17009845320634476 C 4.438562643472487 0.02267962175615784 3.9388893570787262 -0.02968236085861462 3.4433689970389154 0.016003910091662136 C 2.9478486369991046 0.061690181041938894 2.466178630359101 0.20452971722928026 2.0258608634152475 0.43636577084378375 C 1.585543096471394 0.6682018244582872 1.1952020253731548 0.9844951970676805 0.8771212806863701 1.3671860872586017 C 0.5590405359995854 1.7498769774495229 0.31945307423768954 2.1914712396521034 0.17203425517642235 2.6667557217454965 C 0.024615436115155154 3.1420402038388895 -0.027746562968021773 3.6417060402999093 0.01793971556151604 4.137226394592467 C 0.06362599409105385 4.632746748885025 0.2064619244187079 5.114416778135909 0.4382979807221431 5.554734511775282 C 0.6701340370255783 5.995052245414656 0.9864328272215896 6.385395144822397 1.36912372185112 6.703475885819947 C 4.404500977652759 9.049440270065661 6.876999032128937 12.044337850966235 8.605720609088085 15.469040069783777 C 10.334442186047232 18.89374228860132 11.275649108112106 22.66160480083033 11.360473735643046 26.49694932019942 C 11.275649108112106 30.33229383956851 10.334442186047232 34.100156351797516 8.605720609088085 37.52485857061506 C 6.876999032128937 40.9495607894326 4.404500977652759 43.94445701685367 1.36912372185112 46.29042140109938 C 0.9859005995944112 46.60813537734639 0.6691194067363726 46.99833511809814 0.43692645479970843 47.4386628900439 C 0.2047335028630443 47.87899066198966 0.06168585168036145 48.36079372699768 0.015983486482675006 48.85648862375243 C -0.029718878715011433 49.35218352050719 0.022822667886897047 49.852025534884824 0.17059054367912269 50.32738519148617 C 0.31835841947134835 50.80274484808752 0.5584502215426328 51.244283448445124 0.8771212806863701 51.62671108687076 C 1.232960071983303 52.05392756178645 1.6785593698256274 52.39749595746858 2.182229255687773 52.632977988817515 C 2.685899141549919 52.86846002016645 3.2352690945143014 52.99007342427375 3.7912676006806216 52.98917048530002 C 4.675548280519089 52.990898205863665 5.532515517888096 52.68292651479111 6.213411253930201 52.11871352232906 C 10.11322791281404 49.06993753129385 13.27993960352503 45.185652320633544 15.480588136539211 40.75160786883575 C 17.681236669553392 36.31756341703795 18.859835279572856 31.44656840665428 18.92967987060547 26.49694932019942 C 18.859835279572856 21.54733023374456 17.681236669553392 16.676335223360883 15.480588136539211 12.242290771563086 C 13.27993960352503 7.808246319765288 10.11322791281404 3.9239633085091894 6.213411253930201 0.8751873174739833 L 6.213411253930201 0.8751873174739833 Z" fill="rgb(0,0,0)"/>
        </svg>