<svg 
          width="52.90911865234375" 
          height="68.17574310302734" fill="none" 
          xmlns="http://www.w3.org/2000/svg">
          <path d="M 51.01644892370093 0.507040482586713 C 50.441116568077646 0.17487219930724923 49.788483949260694 0 49.12414734149934 0 C 48.45981073373798 0 47.80717811492104 0.17487219930724923 47.231845759297755 0.507040482586713 L 22.707618986419035 17.34852460244866 L 3.7846031644031726 17.34852460244866 C 2.7808639608898513 17.34852460244866 1.8182356276095555 17.747257344896706 1.1084848741333686 18.45700805435386 C 0.3987341206571816 19.166758763811014 8.403507144379258e-16 20.12938658622888 0 21.133125727489883 L 0 47.095505939675945 C 8.403507144379258e-16 48.099245080936946 0.3987341206571816 49.061869294076196 1.1084848741333686 49.77162000353335 C 1.8182356276095555 50.481370712990504 2.7808639608898513 50.88010886935648 3.7846031644031726 50.88010886935648 L 22.707618986419035 50.88010886935648 L 46.96692469275876 67.53236031623936 C 47.60985709272991 67.94831227840221 48.35840545068036 68.17156413732454 49.12414734149934 68.17574310302734 C 50.12788654501266 68.17574310302734 51.090518036411936 67.77701216521861 51.80026878988812 67.06726145576145 C 52.51001954336431 66.3575107463043 52.90875050590251 65.39487931460782 52.90875050590251 64.39114017334681 L 52.90875050590251 3.8374914938190137 C 52.918122540319885 3.164214405768708 52.7477036101322 2.5006271028916056 52.41506612820037 1.9151851935589344 C 52.082428646268546 1.329743284226263 51.59961820797109 0.8436464303144027 51.01644892370093 0.507040482586713 L 51.01644892370093 0.507040482586713 Z M 45.45308487070902 57.27608984171259 L 26.03806839956787 43.95428579678339 C 25.400897254543196 43.52598226286609 24.648533437703573 43.30159242729988 23.880845750827287 43.310903009995414 L 7.493514337703858 43.310903009995414 L 7.493514337703858 24.917728657170414 L 23.880845750827287 24.917728657170414 C 24.648533437703573 24.927039239865948 25.400897254543196 24.702649404299738 26.03806839956787 24.274345870382437 L 45.339544177096165 11.028237421139883 L 45.45308487070902 57.27608984171259 Z" fill="rgb(0,0,0)"/>
        </svg>