<svg 
          width="31.062868118286133" 
          height="30.833341598510742" fill="none" 
          xmlns="http://www.w3.org/2000/svg">
          <path d="M 15.531438502721146 0 C 12.459611675934326 -6.846375194996196e-16 9.45676788101002 0.9041717535041673 6.902637156071904 2.598176839760446 C 4.348506431133789 4.292181926016725 2.357804095325854 6.699935568685051 1.182266808302346 9.516963032038431 C 0.006729521278837858 12.333990495391811 -0.30084460822761966 15.433767944265881 0.29843910500626464 18.424308364962354 C 0.8977228182401489 21.414848785658826 2.376948233164433 24.161836213041276 4.549057885180346 26.3178957323335 C 6.721167537196259 28.473955251625725 9.488604451612897 29.94225174306245 12.501407045611288 30.53710723457759 C 15.514209639609678 31.13196272609273 18.637062443789645 30.82666134349637 21.475060415734525 29.65981032581514 C 24.313058387679405 28.492959308133912 26.738733231729565 26.516964905852788 28.445348826288484 23.981707140247487 C 30.151964420847403 21.446449374642185 31.062868118286133 18.465794900676933 31.062868118286133 15.416666388511738 C 31.062868118286126 13.392120909462566 30.661137184491018 11.387399150113529 29.88060973426723 9.516963032038431 C 29.100082284043445 7.646526913963333 27.956043948263265 5.9470068360264365 26.51381726877108 4.515437044689976 C 25.071590589278898 3.0838672533535147 23.35942042954518 1.9482839054017873 21.475060415734525 1.1735239214562116 C 19.59070040192387 0.398763937510636 17.571055098014156 2.0539125584988586e-15 15.531438502721146 0 L 15.531438502721146 0 Z M 15.531438502721146 24.66666622161878 C 15.224255824671191 24.66666622161878 14.923970922132591 24.57625039935586 14.66855784963878 24.40684989762202 C 14.41314477714497 24.23744939588818 14.214074955520893 23.99667164476581 14.09652123144727 23.714968889241423 C 13.978967507373646 23.433266133717034 13.948210095580182 23.12328796153884 14.008138463432024 22.824233914874668 C 14.068066831283867 22.525179868210497 14.215989813662558 22.250481419521826 14.433200774235422 22.034875472187128 C 14.650411734808285 21.81926952485243 14.927155092981595 21.67244104386664 15.228435357010161 21.61295549816102 C 15.529715621038727 21.5534699524554 15.842001331928351 21.58400009186367 16.125801138380293 21.700685189037266 C 16.409600944832235 21.817370286210863 16.65216813068435 22.01496914293435 16.82282968319715 22.26849491949488 C 16.99349123570995 22.52202069605541 17.084581612396914 22.820086736145612 17.084581612396914 23.124999582767607 C 17.084581612396914 23.533875012222985 16.92094705788615 23.926005122390517 16.629676231206872 24.215123693348083 C 16.338405404527595 24.50424226430565 15.943357681596009 24.66666622161878 15.531438502721146 24.66666622161878 Z M 17.084581612396914 16.711666600386383 L 17.084581612396914 18.499999666214084 C 17.084581612396914 18.908875095669465 16.92094705788615 19.30100373558912 16.629676231206872 19.590122306546686 C 16.338405404527595 19.87924087750425 15.943357681596009 20.04166630506526 15.531438502721146 20.04166630506526 C 15.119519323846283 20.04166630506526 14.7244716009147 19.87924087750425 14.433200774235422 19.590122306546686 C 14.141929947556143 19.30100373558912 13.978295393045379 18.908875095669465 13.978295393045379 18.499999666214084 L 13.978295393045379 15.416666388511738 C 13.978295393045379 15.007790959056358 14.141929947556143 14.615662319136701 14.433200774235422 14.326543748179137 C 14.7244716009147 14.037425177221573 15.119519323846283 13.874999749660564 15.531438502721146 13.874999749660564 C 15.992212554511532 13.874999749660564 16.442638392411286 13.739374551761466 16.825758001152003 13.48527379341755 C 17.20887760989272 13.231173035073633 17.50748382352153 12.870009331656362 17.683814409631964 12.447455221342405 C 17.8601449957424 12.024901111028448 17.906281116325548 11.559933841274841 17.81638856165483 11.111352759792272 C 17.72649600698411 10.662771678309703 17.50461228847719 10.250724028249321 17.178795836046078 9.927315095760964 C 16.852979383614965 9.603906163272606 16.43786436949864 9.383661985903933 15.985943961883972 9.294433664473924 C 15.534023554269305 9.205205343043916 15.065594976363053 9.251000555027895 14.639895289828775 9.426028200788293 C 14.214195603294497 9.601055846548691 13.850343325965905 9.897455601881795 13.594350991410796 10.277744266722591 C 13.338358656855686 10.658032931563387 13.201723838207494 11.105130486991877 13.201723838207494 11.562499791383804 C 13.201723838207494 11.971375220839183 13.03808928369673 12.36350386075884 12.74681845701745 12.652622431716404 C 12.455547630338172 12.941741002673968 12.060499166810242 13.104166430234976 11.64857998793538 13.104166430234976 C 11.236660809060517 13.104166430234976 10.841613086128934 12.941741002673968 10.550342259449655 12.652622431716404 C 10.259071432770376 12.36350386075884 10.095436878259612 11.971375220839183 10.095436878259612 11.562499791383804 C 10.091373589532672 10.56088175444961 10.368260583980735 9.577910044336807 10.895097264802233 8.723635655204413 C 11.421933945623731 7.869361266072019 12.177923726252272 7.177506446481743 13.078429358408785 6.72552835727721 C 13.978934990565298 6.273550268072677 14.98840974738629 6.079290505088339 15.99383427536172 6.164498674908683 C 16.99925880333715 6.249706844729027 17.96094519226914 6.611018974264099 18.77122610072162 7.20798358230538 C 19.5815070091741 7.8049481903466615 20.208397376976677 8.614000281742385 20.581711628948895 9.544561054955105 C 20.955025880921113 10.475121828167826 21.06002782767722 11.490458288598546 20.88496213383968 12.476895464850129 C 20.709896440002137 13.463332641101712 20.26167365636928 14.381931293798589 19.59047526063447 15.129848962236746 C 18.91927686489966 15.877766630674904 18.05159788808702 16.42547956586168 17.084581612396914 16.711666600386383 L 17.084581612396914 16.711666600386383 Z" fill="rgb(207.18383699655533,207.18383699655533,207.18383699655533)"/>
        </svg>