<svg 
          width="75.69206237792969" 
          height="68.12285614013672" fill="none" 
          xmlns="http://www.w3.org/2000/svg">
          <path d="M 64.33825302124023 15.138412475585938 L 52.98444366455078 15.138412475585938 L 52.98444366455078 9.461507797241211 C 52.98444366455078 6.9521598750257 51.98760913622618 4.54558842221968 50.21323218927864 2.771211475272139 C 48.4388552423311 0.9968345283245981 46.03228378952508 0 43.52293586730957 0 L 32.16912651062012 0 C 29.659778588404606 0 27.253207135598586 0.9968345283245981 25.478830188651045 2.771211475272139 C 23.704453241703504 4.54558842221968 22.70761871337891 6.9521598750257 22.707618713378906 9.461507797241211 L 22.707618713378906 15.138412475585938 L 11.353809356689453 15.138412475585938 C 8.342591895146825 15.138412475585938 5.45470642247551 16.33461431561932 3.325454131254446 18.463866606840384 C 1.1962018400333818 20.593118898061448 3.3614028173336447e-15 23.481004370732762 0 26.49222183227539 L 0 56.769046783447266 C 3.3614028173336447e-15 59.780264244989894 1.1962018400333818 62.668151522300604 3.325454131254446 64.79740381352167 C 5.45470642247551 66.92665610474273 8.342591895146825 68.1228561401367 11.353809356689453 68.12285614013672 L 64.33825302124023 68.12285614013672 C 67.34947048278286 68.1228561401367 70.23735776009357 66.92665610474273 72.36661005131464 64.79740381352167 C 74.4958623425357 62.668151522300604 75.69206237792967 59.780264244989894 75.69206237792969 56.769046783447266 L 75.69206237792969 26.49222183227539 C 75.69206237792967 23.481004370732762 74.4958623425357 20.593118898061448 72.36661005131464 18.463866606840384 C 70.23735776009357 16.33461431561932 67.34947048278286 15.138412475585938 64.33825302124023 15.138412475585938 Z M 30.276824951171875 9.461507797241211 C 30.276824951171875 8.959638201519112 30.476190430043772 8.47832426624629 30.831065802514786 8.123448893775276 C 31.1859411749858 7.768573521304262 31.66725691489802 7.569206237792969 32.16912651062012 7.569206237792969 L 43.52293586730957 7.569206237792969 C 44.02480546303167 7.569206237792969 44.50612120294389 7.768573521304262 44.8609965754149 8.123448893775276 C 45.215871947885915 8.47832426624629 45.41523742675781 8.959638201519112 45.41523742675781 9.461507797241211 L 45.41523742675781 15.138412475585938 L 30.276824951171875 15.138412475585938 L 30.276824951171875 9.461507797241211 Z M 68.12285614013672 56.769046783447266 C 68.12285614013672 57.77278597489146 67.72412518239292 58.7354174547159 67.0143744374509 59.44516819965793 C 66.30462369250887 60.154918944599956 65.34199221268443 60.55364990234375 64.33825302124023 60.55364990234375 L 11.353809356689453 60.55364990234375 C 10.350070165245256 60.55364990234375 9.38744229469961 60.154918944599956 8.677691549757583 59.44516819965793 C 7.967940804815555 58.7354174547159 7.569206237792969 57.77278597489146 7.569206237792969 56.769046783447266 L 7.569206237792969 26.49222183227539 C 7.569206237792969 25.488482640831194 7.967940804815555 24.525854770285548 8.677691549757583 23.81610402534352 C 9.38744229469961 23.106353280401493 10.350070165245256 22.707618713378906 11.353809356689453 22.707618713378906 L 64.33825302124023 22.707618713378906 C 65.34199221268443 22.707618713378906 66.30462369250887 23.106353280401493 67.0143744374509 23.81610402534352 C 67.72412518239292 24.525854770285548 68.12285614013672 25.488482640831194 68.12285614013672 26.49222183227539 L 68.12285614013672 56.769046783447266 Z" fill="rgb(0,0,0)"/>
        </svg>