<svg 
          width="26.49222755432129" 
          height="26.492225646972656" fill="none" 
          xmlns="http://www.w3.org/2000/svg">
          <path d="M 13.246117386439233 0 C 10.626284174464756 0 8.06528310580083 0.776870030761639 5.886971590065742 2.2323712817773123 C 3.708660074330654 3.6878725327929853 2.010872683210975 5.756634201682872 1.0083060000581545 8.177044385588522 C 0.005739316905334135 10.597454569494172 -0.2565778343640517 13.260805745402914 0.25452624146143654 15.830299436623514 C 0.7656303172869248 18.399793127844113 2.0272020746544954 20.76002558449878 3.8797037866348862 22.612527289297095 C 5.7322054986152775 24.46502899409541 8.092434355141886 25.72659705270087 10.661928056324314 26.237701126544827 C 13.231421757506741 26.748805200388784 15.894772943741193 26.48648441266033 18.31518313703068 25.483917733394424 C 20.735593330320167 24.481351054128517 22.804355007230562 22.783567391659624 24.25985626388916 20.605255884369765 C 25.715357520547755 18.426944377079906 26.49222755432129 15.865943318344883 26.49222755432129 13.246110116527397 C 26.49222755432129 9.733023327727485 25.096658481413012 6.363824038574846 22.612530986243577 3.8796965530362755 C 20.128403491074142 1.3955690674977053 16.759204188859247 0 13.246117386439233 0 L 13.246117386439233 0 Z M 13.246117386439233 18.923014452181995 C 12.123331724164457 18.923014452181988 11.025761948377662 18.590071192563023 10.092199821866929 17.96628493407131 C 9.158637695356196 17.3424986755796 8.431012574050314 16.455885991989145 8.001341126328752 15.41856737396957 C 7.571669678607191 14.381248755949994 7.459248038320669 13.239811023095415 7.678292646274091 12.138599376692326 C 7.897337254227513 11.037387730289238 8.438009752741191 10.0258611861473 9.231939098157772 9.231931843808752 C 10.025868443574353 8.438002501470205 11.037394991637942 7.897330005052693 12.138606642310386 7.678285397948498 C 13.239818292982829 7.459240790844303 14.381256030262715 7.57166243069497 15.418574652303937 8.001333876750712 C 16.455893274345158 8.431005322806453 17.342505961372975 9.158630441291363 17.966292222283084 10.092192564182712 C 18.590078483193192 11.02575468707406 18.92302174410297 12.123324458605618 18.92302174410297 13.246110116527397 C 18.923021744102964 14.75171875641164 18.32492176019187 16.195662307902374 17.26029567472069 17.260288389246043 C 16.195669589249512 18.32491447058971 14.751726032160661 18.923014452181995 13.246117386439233 18.923014452181995 L 13.246117386439233 18.923014452181995 Z" fill="rgb(0,0,0)"/>
        </svg>