<svg 
          width="11.376733779907227" 
          height="30.286876678466797" fill="none" 
          xmlns="http://www.w3.org/2000/svg">
          <path d="M 6.74950117942088 1.4103317734272838 C 6.117145491761171 0.6274152544231572 5.199673470195881 0.1277670165945256 4.1989248967749 0.021304402434696054 C 3.1981763233539198 -0.08515821172513349 2.196127845607741 0.21028701471738653 1.41321131753047 0.8426426950487862 C 0.630294789453199 1.4749983753801859 0.13064300704909823 2.392466833429184 0.024180391655483663 3.3932153952525854 C -0.0822822237381309 4.393963957075987 0.21315938275070956 5.396015806908378 0.8455150704104185 6.178932325912505 C 2.7575927856341482 8.778617102802597 3.7888747299769814 11.921305465049345 3.7888747299769947 15.14844079962065 C 3.7888747299769814 18.375576134191952 2.7575927856341482 21.51826494759855 0.8455150704104185 24.117949724488643 C 0.3943154593849201 24.67413078666626 0.11019375671992351 25.346922232264873 0.026151057891480995 26.058157234034827 C -0.05789164093696153 26.76939223580478 0.061594683463703004 27.489873589460927 0.3707361254430141 28.135899920721407 C 0.6798775674223252 28.781926251981886 1.165985361867525 29.326976946948335 1.7725727725731624 29.707726391721582 C 2.3791601832788 30.08847583649483 3.081329023263962 30.289296908945857 3.7975081249156495 30.286855022794125 C 4.362908081176116 30.288777494429354 4.9215530465440755 30.163989279892338 5.432395933683486 29.921666391327857 C 5.943238820822896 29.679343502763377 6.393300409317794 29.32564255710737 6.74950117942088 28.886550502553785 C 9.751470564274127 24.935733342764323 11.376733779907227 20.110373497785503 11.376733779907227 15.14844079962065 C 11.376733779907227 10.186508101455798 9.751470564274127 5.361148933216745 6.74950117942088 1.4103317734272838 L 6.74950117942088 1.4103317734272838 Z" fill="rgb(0,0,0)"/>
        </svg>